<?xml version="1.0" encoding="utf-8"?>
<!-- Generator: Adobe Illustrator 23.0.2, SVG Export Plug-In . SVG Version: 6.00 Build 0)  -->
<svg version="1.1" id="Layer_1" xmlns="http://www.w3.org/2000/svg" xmlns:xlink="http://www.w3.org/1999/xlink" x="0px" y="0px"
	 viewBox="0 0 52 54" style="enable-background:new 0 0 52 54;" xml:space="preserve">
<style type="text/css">
	.st0{fill:none;}
	.st1{fill:#FFFFFF;stroke:#000000;stroke-width:2;stroke-linecap:round;stroke-linejoin:round;}
	.st2{font-family:'TimesNewRomanPSMT';}
	.st3{font-size:44px;}
</style>
<path class="st0" d="M26,2L26,2c14.4,0,26,11.6,26,26l0,0c0,14.4-11.6,26-26,26h-0.9C11.2,54,0,42.8,0,28.9c0,0,0,0,0,0V28
	C0,13.6,11.6,2,26,2z"/>
<path class="st1" d="M26,3L26,3c13.8,0,25,11.2,25,25l0,0c0,13.8-11.2,25-25,25h-0.9C11.8,53,1,42.2,1,28.9c0,0,0,0,0,0V28
	C1,14.2,12.2,3,26,3z"/>
<text transform="matrix(1 0 0 1 16 39)" class="st2 st3">x</text>
</svg>
